<svg width="126" height="125" viewBox="0 0 126 125" fill="none" xmlns="http://www.w3.org/2000/svg">
<path d="M63 0C28.625 0 0.5 28.125 0.5 62.5C0.5 96.875 28.625 125 63 125C97.375 125 125.5 96.875 125.5 62.5C125.5 28.125 97.375 0 63 0ZM43.1875 31.5625C49.3125 31.5625 54.25 36.5 54.25 42.6875C54.25 48.8125 49.3125 53.75 43.1875 53.75C37 53.75 32.0625 48.8125 32.0625 42.6875C32.0625 36.5 37 31.5625 43.1875 31.5625ZM83.125 93.75C77 93.75 72.0625 88.75 72.0625 82.625C72.0625 76.5 77 71.5625 83.125 71.5625C89.25 71.5625 94.25 76.5 94.25 82.625C94.25 88.75 89.25 93.75 83.125 93.75ZM41.125 93.9375L31.75 84.5625L85.0625 31.25L94.4375 40.625L41.125 93.9375Z" fill="#9747FF"/>
</svg>
