<svg width="126" height="125" viewBox="0 0 126 125" fill="none" xmlns="http://www.w3.org/2000/svg">
<circle cx="63" cy="62.5" r="62.5" fill="#9747FF"/>
<path d="M102.517 45.4877C104.827 45.4877 107.043 46.4056 108.677 48.0395C110.311 49.6733 111.229 51.8893 111.229 54.1999V71.6241C111.229 73.9347 110.311 76.1507 108.677 77.7845C107.043 79.4183 104.827 80.3362 102.517 80.3362H97.8906C96.8286 88.7578 92.7298 96.5023 86.3633 102.117C79.9969 107.731 71.8004 110.828 63.3122 110.829V102.117C70.244 102.117 76.8919 99.3629 81.7934 94.4614C86.6949 89.5598 89.4485 82.9119 89.4485 75.9802V49.8438C89.4485 42.912 86.6949 36.2641 81.7934 31.3626C76.8919 26.4611 70.244 23.7074 63.3122 23.7074C56.3804 23.7074 49.7325 26.4611 44.831 31.3626C39.9295 36.2641 37.1758 42.912 37.1758 49.8438V80.3362H24.1076C21.797 80.3362 19.5811 79.4183 17.9472 77.7845C16.3134 76.1507 15.3955 73.9347 15.3955 71.6241V54.1999C15.3955 51.8893 16.3134 49.6733 17.9472 48.0395C19.5811 46.4056 21.797 45.4877 24.1076 45.4877H28.7338C29.7968 37.067 33.896 29.3236 40.2624 23.7104C46.6288 18.0972 54.8246 15 63.3122 15C71.7997 15 79.9956 18.0972 86.3619 23.7104C92.7283 29.3236 96.8276 37.067 97.8906 45.4877H102.517ZM44.8425 79.3997L49.4599 72.0118C53.6116 74.6125 58.4132 75.9881 63.3122 75.9802C68.2111 75.9881 73.0128 74.6125 77.1644 72.0118L81.7819 79.3997C76.2464 82.8677 69.8443 84.7023 63.3122 84.6923C56.7801 84.7023 50.3779 82.8677 44.8425 79.3997Z" fill="white"/>
</svg>
