<svg width="126" height="125" viewBox="0 0 126 125" fill="none" xmlns="http://www.w3.org/2000/svg">
<circle cx="63.333" cy="62.5" r="62.5" fill="#9747FF"/>
<path d="M14.791 78.6896C14.791 78.6896 14.791 64.3146 24.3743 64.3146C27.6327 64.3146 31.3702 64.075 35.2994 63.4521C39.7077 66.9021 45.9369 69.1062 53.1244 69.1062H54.3223L46.2244 60.9125C47.9014 60.3854 49.5306 59.7625 51.1598 59.0917L60.3119 68.2437C62.1806 67.8604 63.9056 67.3333 65.4869 66.7104L55.7598 56.8875C57.1973 56.0729 58.5869 55.2583 59.9764 54.3L69.8952 64.3146C71.3327 63.3083 72.4827 62.2062 73.4889 61.0562L63.7619 51.3292C64.9119 50.275 66.0619 49.125 67.116 47.9271L76.0764 56.8875C76.6514 55.4021 77.0827 53.9167 77.0827 52.3354C77.0827 48.2625 74.9264 44.6208 71.5244 41.6979C71.7639 41.2667 72.0514 40.8354 72.291 40.3562L79.6223 36.6667C83.6952 41.1708 92.1285 44.3812 102.239 45.0042L102.479 45.1479H105.833C105.833 45.1479 110.624 49.9396 110.624 66.7104C110.624 69.4417 110.624 71.8375 110.433 73.8979H96.2494C90.9785 73.8979 84.6535 75.1437 78.5202 76.2937C72.866 77.5396 67.0202 78.6896 62.7077 78.6896H14.791ZM105.833 88.2729C105.833 88.2729 108.612 88.2729 109.954 78.6896H96.2494C86.666 78.6896 72.291 83.4812 62.7077 83.4812H16.1327C17.7618 86.3562 20.8285 88.2729 24.3743 88.2729H105.833Z" fill="white"/>
</svg>
