<svg width="31" height="30" viewBox="0 0 31 30" fill="none" xmlns="http://www.w3.org/2000/svg">
<path d="M14.1036 29.9214C13.5737 29.9214 13.1293 29.7419 12.7702 29.3829C12.4111 29.0238 12.2322 28.58 12.2335 28.0514V16.8308L1.38696 2.99214C0.919442 2.36878 0.849002 1.71425 1.17564 1.02855C1.50229 0.34285 2.07142 0 2.88304 0H29.0643C29.8747 0 30.4438 0.34285 30.7717 1.02855C31.0996 1.71425 31.0291 2.36878 30.5604 2.99214L19.7138 16.8308V28.0514C19.7138 28.5812 19.5343 29.0257 19.1753 29.3847C18.8162 29.7438 18.3724 29.9227 17.8438 29.9214H14.1036Z" fill="black"/>
</svg>
