<svg width="280" height="200" viewBox="0 0 280 200" fill="none" xmlns="http://www.w3.org/2000/svg">
<rect width="280" height="200" rx="10" fill="black" fill-opacity="0.6"/>
<rect x="41" y="76" width="198" height="48" rx="9" stroke="white" stroke-width="2"/>
<path d="M77.5783 91.272L71.2663 108H68.7463L62.4343 91.272H64.7623L70.0183 105.696L75.2743 91.272H77.5783ZM81.101 92.712C80.685 92.712 80.333 92.568 80.045 92.28C79.757 91.992 79.613 91.64 79.613 91.224C79.613 90.808 79.757 90.456 80.045 90.168C80.333 89.88 80.685 89.736 81.101 89.736C81.501 89.736 81.837 89.88 82.109 90.168C82.397 90.456 82.541 90.808 82.541 91.224C82.541 91.64 82.397 91.992 82.109 92.28C81.837 92.568 81.501 92.712 81.101 92.712ZM82.157 94.848V108H79.973V94.848H82.157ZM97.8793 100.92C97.8793 101.336 97.8553 101.776 97.8073 102.24H87.2953C87.3753 103.536 87.8153 104.552 88.6153 105.288C89.4313 106.008 90.4153 106.368 91.5673 106.368C92.5113 106.368 93.2953 106.152 93.9193 105.72C94.5593 105.272 95.0073 104.68 95.2633 103.944H97.6153C97.2633 105.208 96.5593 106.24 95.5033 107.04C94.4473 107.824 93.1353 108.216 91.5673 108.216C90.3193 108.216 89.1993 107.936 88.2073 107.376C87.2313 106.816 86.4633 106.024 85.9033 105C85.3433 103.96 85.0633 102.76 85.0633 101.4C85.0633 100.04 85.3353 98.848 85.8793 97.824C86.4233 96.8 87.1833 96.016 88.1593 95.472C89.1513 94.912 90.2873 94.632 91.5673 94.632C92.8153 94.632 93.9193 94.904 94.8793 95.448C95.8393 95.992 96.5753 96.744 97.0873 97.704C97.6153 98.648 97.8793 99.72 97.8793 100.92ZM95.6233 100.464C95.6233 99.632 95.4393 98.92 95.0713 98.328C94.7033 97.72 94.1993 97.264 93.5593 96.96C92.9353 96.64 92.2393 96.48 91.4713 96.48C90.3673 96.48 89.4233 96.832 88.6393 97.536C87.8713 98.24 87.4313 99.216 87.3193 100.464H95.6233ZM118.282 94.848L114.178 108H111.922L108.754 97.56L105.586 108H103.33L99.2021 94.848H101.434L104.458 105.888L107.722 94.848H109.954L113.146 105.912L116.122 94.848H118.282ZM138.032 96.168C138.032 97.56 137.552 98.72 136.592 99.648C135.648 100.56 134.2 101.016 132.248 101.016H129.032V108H126.848V91.272H132.248C134.136 91.272 135.568 91.728 136.544 92.64C137.536 93.552 138.032 94.728 138.032 96.168ZM132.248 99.216C133.464 99.216 134.36 98.952 134.936 98.424C135.512 97.896 135.8 97.144 135.8 96.168C135.8 94.104 134.616 93.072 132.248 93.072H129.032V99.216H132.248ZM142.93 96.984C143.314 96.232 143.858 95.648 144.562 95.232C145.282 94.816 146.154 94.608 147.178 94.608V96.864H146.602C144.154 96.864 142.93 98.192 142.93 100.848V108H140.746V94.848H142.93V96.984ZM155.436 108.216C154.204 108.216 153.084 107.936 152.076 107.376C151.084 106.816 150.3 106.024 149.724 105C149.164 103.96 148.884 102.76 148.884 101.4C148.884 100.056 149.172 98.872 149.748 97.848C150.34 96.808 151.14 96.016 152.148 95.472C153.156 94.912 154.284 94.632 155.532 94.632C156.78 94.632 157.908 94.912 158.916 95.472C159.924 96.016 160.716 96.8 161.292 97.824C161.884 98.848 162.18 100.04 162.18 101.4C162.18 102.76 161.876 103.96 161.268 105C160.676 106.024 159.868 106.816 158.844 107.376C157.82 107.936 156.684 108.216 155.436 108.216ZM155.436 106.296C156.22 106.296 156.956 106.112 157.644 105.744C158.332 105.376 158.884 104.824 159.3 104.088C159.732 103.352 159.948 102.456 159.948 101.4C159.948 100.344 159.74 99.448 159.324 98.712C158.908 97.976 158.364 97.432 157.692 97.08C157.02 96.712 156.292 96.528 155.508 96.528C154.708 96.528 153.972 96.712 153.3 97.08C152.644 97.432 152.116 97.976 151.716 98.712C151.316 99.448 151.116 100.344 151.116 101.4C151.116 102.472 151.308 103.376 151.692 104.112C152.092 104.848 152.62 105.4 153.276 105.768C153.932 106.12 154.652 106.296 155.436 106.296ZM164.235 101.376C164.235 100.032 164.507 98.856 165.051 97.848C165.595 96.824 166.339 96.032 167.283 95.472C168.243 94.912 169.315 94.632 170.499 94.632C171.523 94.632 172.475 94.872 173.355 95.352C174.235 95.816 174.907 96.432 175.371 97.2V90.24H177.579V108H175.371V105.528C174.939 106.312 174.299 106.96 173.451 107.472C172.603 107.968 171.611 108.216 170.475 108.216C169.307 108.216 168.243 107.928 167.283 107.352C166.339 106.776 165.595 105.968 165.051 104.928C164.507 103.888 164.235 102.704 164.235 101.376ZM175.371 101.4C175.371 100.408 175.171 99.544 174.771 98.808C174.371 98.072 173.827 97.512 173.139 97.128C172.467 96.728 171.723 96.528 170.907 96.528C170.091 96.528 169.347 96.72 168.675 97.104C168.003 97.488 167.467 98.048 167.067 98.784C166.667 99.52 166.467 100.384 166.467 101.376C166.467 102.384 166.667 103.264 167.067 104.016C167.467 104.752 168.003 105.32 168.675 105.72C169.347 106.104 170.091 106.296 170.907 106.296C171.723 106.296 172.467 106.104 173.139 105.72C173.827 105.32 174.371 104.752 174.771 104.016C175.171 103.264 175.371 102.392 175.371 101.4ZM192.934 94.848V108H190.75V106.056C190.334 106.728 189.75 107.256 188.998 107.64C188.262 108.008 187.446 108.192 186.55 108.192C185.526 108.192 184.606 107.984 183.79 107.568C182.974 107.136 182.326 106.496 181.846 105.648C181.382 104.8 181.15 103.768 181.15 102.552V94.848H183.31V102.264C183.31 103.56 183.638 104.56 184.294 105.264C184.95 105.952 185.846 106.296 186.982 106.296C188.15 106.296 189.07 105.936 189.742 105.216C190.414 104.496 190.75 103.448 190.75 102.072V94.848H192.934ZM195.805 101.4C195.805 100.04 196.077 98.856 196.621 97.848C197.165 96.824 197.917 96.032 198.877 95.472C199.853 94.912 200.965 94.632 202.213 94.632C203.829 94.632 205.157 95.024 206.197 95.808C207.253 96.592 207.949 97.68 208.285 99.072H205.933C205.709 98.272 205.269 97.64 204.613 97.176C203.973 96.712 203.173 96.48 202.213 96.48C200.965 96.48 199.957 96.912 199.189 97.776C198.421 98.624 198.037 99.832 198.037 101.4C198.037 102.984 198.421 104.208 199.189 105.072C199.957 105.936 200.965 106.368 202.213 106.368C203.173 106.368 203.973 106.144 204.613 105.696C205.253 105.248 205.693 104.608 205.933 103.776H208.285C207.933 105.12 207.229 106.2 206.173 107.016C205.117 107.816 203.797 108.216 202.213 108.216C200.965 108.216 199.853 107.936 198.877 107.376C197.917 106.816 197.165 106.024 196.621 105C196.077 103.976 195.805 102.776 195.805 101.4ZM213.864 96.648V104.4C213.864 105.04 214 105.496 214.272 105.768C214.544 106.024 215.016 106.152 215.688 106.152H217.296V108H215.328C214.112 108 213.2 107.72 212.592 107.16C211.984 106.6 211.68 105.68 211.68 104.4V96.648H209.976V94.848H211.68V91.536H213.864V94.848H217.296V96.648H213.864Z" fill="white"/>
</svg>
