<svg width="21" height="25" viewBox="0 0 21 25" fill="none" xmlns="http://www.w3.org/2000/svg">
<path d="M10.1191 0C4.59057 0 0.119141 3.9125 0.119141 8.75C0.119141 15.3125 10.1191 25 10.1191 25C10.1191 25 20.1191 15.3125 20.1191 8.75C20.1191 3.9125 15.6477 0 10.1191 0ZM10.1191 11.875C9.17194 11.875 8.26353 11.5458 7.59376 10.9597C6.92399 10.3737 6.54771 9.5788 6.54771 8.75C6.54771 7.9212 6.92399 7.12634 7.59376 6.54029C8.26353 5.95424 9.17194 5.625 10.1191 5.625C11.0663 5.625 11.9747 5.95424 12.6445 6.54029C13.3143 7.12634 13.6906 7.9212 13.6906 8.75C13.6906 9.5788 13.3143 10.3737 12.6445 10.9597C11.9747 11.5458 11.0663 11.875 10.1191 11.875Z" fill="#797979"/>
</svg>
