<svg width="80" height="80" viewBox="0 0 80 80" fill="none" xmlns="http://www.w3.org/2000/svg">
<path d="M0 40C0 47.9112 2.34596 55.6448 6.74121 62.2228C11.1365 68.8008 17.3836 73.9277 24.6927 76.9552C32.0017 79.9827 40.0444 80.7748 47.8036 79.2314C55.5628 77.688 62.6902 73.8783 68.2843 68.2843C73.8783 62.6902 77.688 55.5628 79.2314 47.8036C80.7748 40.0444 79.9827 32.0017 76.9552 24.6927C73.9277 17.3836 68.8008 11.1365 62.2228 6.74121C55.6448 2.34596 47.9112 0 40 0C29.3913 0 19.2172 4.21427 11.7157 11.7157C4.21427 19.2172 0 29.3913 0 40ZM17.1429 37.1428H51.8571L35.9143 21.1229L40 17.1429L62.8571 40L40 62.8571L35.9143 58.78L51.8571 42.8571H17.1429V37.1428Z" fill="white" fill-opacity="0.9"/>
</svg>
