<svg width="80" height="80" viewBox="0 0 80 80" fill="none" xmlns="http://www.w3.org/2000/svg">
<path d="M80 40C80 32.0888 77.654 24.3552 73.2588 17.7772C68.8635 11.1992 62.6164 6.07234 55.3073 3.04484C47.9983 0.017334 39.9556 -0.774803 32.1964 0.768608C24.4372 2.31202 17.3098 6.12165 11.7157 11.7157C6.12165 17.3098 2.31202 24.4372 0.768608 32.1964C-0.774803 39.9556 0.017334 47.9983 3.04484 55.3073C6.07234 62.6164 11.1992 68.8635 17.7772 73.2588C24.3552 77.654 32.0888 80 40 80C50.6087 80 60.7828 75.7857 68.2843 68.2843C75.7857 60.7828 80 50.6087 80 40ZM62.8571 42.8572L28.1429 42.8572L44.0857 58.8771L40 62.8571L17.1429 40L40 17.1429L44.0857 21.22L28.1429 37.1429L62.8571 37.1429V42.8572Z" fill="white" fill-opacity="0.9"/>
</svg>
