<svg width="28" height="24" viewBox="0 0 28 24" fill="none" xmlns="http://www.w3.org/2000/svg">
<path d="M28 3.45548C26.9878 3.91557 25.8968 4.21791 24.7663 4.36251C25.923 3.6658 26.8169 2.5616 27.2376 1.23392C26.1465 1.89119 24.9371 2.35127 23.662 2.61418C22.6236 1.48368 21.1644 0.826416 19.5081 0.826416C16.419 0.826416 13.8951 3.35032 13.8951 6.46576C13.8951 6.9127 13.9477 7.34649 14.0397 7.754C9.35994 7.51738 5.19288 5.26953 2.41922 1.8649C1.93284 2.69305 1.65679 3.6658 1.65679 4.69114C1.65679 6.64979 2.64269 8.38497 4.16754 9.37087C3.23423 9.37087 2.36664 9.10796 1.60421 8.71361V8.75304C1.60421 11.4873 3.54971 13.7746 6.1262 14.2872C5.299 14.5136 4.43057 14.5451 3.58915 14.3792C3.94619 15.4998 4.64542 16.4804 5.58857 17.183C6.53172 17.8857 7.67136 18.2751 8.84728 18.2965C6.85396 19.8746 4.38312 20.7275 1.84082 20.7153C1.39388 20.7153 0.946941 20.689 0.5 20.6364C2.99761 22.2401 5.96845 23.1735 9.14962 23.1735C19.5081 23.1735 25.2001 14.5764 25.2001 7.12302C25.2001 6.87326 25.2 6.63664 25.1869 6.38688C26.2911 5.59817 27.2376 4.59912 28 3.45548Z" fill="white"/>
</svg>
